<svg xmlns="http://www.w3.org/2000/svg" id="Layer_1" data-name="Layer 1" viewBox="0 0 248.96 99.34"><defs><style>.cls-2{fill:#fff}</style></defs><path d="M139.07.26h97.14V16h-97.14z" style="fill:#389144"/><path d="M139.07 16h97.14v15.74h-97.14z"/><path d="m147.44 12.73-2.03-4.31v4.31h-3.07V3.52h3.81l2.2 4.54 2.2-4.54h3.81v9.21h-3.08V8.42l-2.02 4.31h-1.82zM205.54 3.52h-3.02V8.2l-3.45-4.68h-3.04v9.21h3v-4.6l3.42 4.6h3.09V3.52zM194.83 3.52h-3.02V8.2l-3.45-4.68h-3.05v9.21h3.01v-4.6l3.42 4.6h3.09V3.52zM170.96 28.48h2.64l2.84-9.21h-3.08l-1.4 4.57-1.37-4.57h-2.04l-1.37 4.57-1.39-4.57h-3.09l2.84 9.21h2.64l1.39-4.44 1.39 4.44zM214.61 12.73h-7.88V3.52h7.56v2.43h-4.55v1.07h3.97v2.17h-3.97v1.11h4.87v2.43zM185.03 28.48h-7.87v-9.21h7.55v2.43h-4.54v1.06h3.97v2.17h-3.97v1.12h4.86v2.43zM215.72 3.52h3.02v6.78h4.77v2.43h-7.79V3.52zM224.61 3.52h3.01v6.78h4.77v2.43h-7.78V3.52zM186.15 19.27h3.27v6.78h4.52v2.43h-7.79v-9.21zM195.03 19.27h3.27v6.78h4.52v2.43h-7.79v-9.21zM184.47 8.07a5.17 5.17 0 1 1-5.16-4.9 5 5 0 0 1 5.16 4.9m-5.14-2.16a2.19 2.19 0 1 0 2.1 2.19 2.14 2.14 0 0 0-2.1-2.19M162.91 23.87a5.17 5.17 0 1 1-5.16-4.9 5 5 0 0 1 5.16 4.9m-5.14-2.17a2.19 2.19 0 1 0 2.11 2.19 2.15 2.15 0 0 0-2.11-2.19M158.83 7.89a1.35 1.35 0 0 1 0-2.69 1.27 1.27 0 0 1 1.12.68h2.36a3.51 3.51 0 0 0-3.5-2.73 3.39 3.39 0 1 0 0 6.77 3.52 3.52 0 0 0 3.49-2.71h-2.35a1.27 1.27 0 0 1-1.12.68" class="cls-2"/><path d="M168.24 10.07a2.045 2.045 0 0 1 0-4.09 2 2 0 0 1 1.79 1.19h3.28a5.1 5.1 0 0 0-5.09-4.07 4.91 4.91 0 1 0 0 9.81 5.1 5.1 0 0 0 5.07-4H170a2 2 0 0 1-1.76 1.14M142.34 19.27h4.77a4.68 4.68 0 0 1 3.42 1.28 4.42 4.42 0 0 1 1.3 3.32 4.48 4.48 0 0 1-1.32 3.32 4.55 4.55 0 0 1-3.35 1.29h-4.84Zm6.06 3.22a1.64 1.64 0 0 0-1.29-.42h-2v3.76h1.88a2 2 0 0 0 1.43-.48 1.91 1.91 0 0 0 .35-1.39 2.09 2.09 0 0 0-.42-1.42" class="cls-2"/><path d="M236.46 32h-97.64V0h97.64Zm-97.13-.51h96.62v-31h-96.62ZM6.17 99.34A6.07 6.07 0 0 1 0 93.15a6.12 6.12 0 0 1 6.28-6.23 6.19 6.19 0 0 1 4.74 1.86l-1.68 1.94a4.46 4.46 0 0 0-3.08-1.35 3.56 3.56 0 0 0-3.49 3.75 3.58 3.58 0 0 0 3.49 3.78 4.32 4.32 0 0 0 3.16-1.41l1.69 1.71a6.16 6.16 0 0 1-4.94 2.14m14.35-.2-2.58-3.85h-2.08v3.85h-2.65V87.07h5.5c2.84 0 4.54 1.5 4.54 4a3.74 3.74 0 0 1-2.58 3.73l2.95 4.3Zm0-7.93c0-1.13-.79-1.72-2.08-1.72h-2.63v3.46h2.68c1.29 0 2-.69 2-1.71Zm5.1 7.93V87.07h9.08v2.36h-6.45v2.44h5.67v2.36h-5.67v2.52h6.53v2.36Zm20.53 0-1.1-2.7h-5.04l-1.1 2.7h-2.7l5.16-12.07h2.44l5.16 12.12Zm-3.64-8.94-1.6 3.9h3.2Zm12.35-.66v9.6h-2.65v-9.6h-3.67v-2.47h10v2.44Zm5.79-2.44h2.65v12h-2.65Zm11.82 12.12h-2.34l-4.81-12.15h2.92l3.15 8.48 3.14-8.48h2.86Zm6.71-.08V87.07h9.08v2.36h-6.45v2.44h5.68v2.36h-5.68v2.52h6.54v2.36Zm22.33.2a6.07 6.07 0 0 1-6.17-6.19 6.12 6.12 0 0 1 6.28-6.23 6.2 6.2 0 0 1 4.74 1.86l-1.68 1.94a4.46 4.46 0 0 0-3.08-1.35 3.56 3.56 0 0 0-3.49 3.75 3.58 3.58 0 0 0 3.49 3.78 4.32 4.32 0 0 0 3.16-1.41l1.69 1.71a6.16 6.16 0 0 1-4.94 2.14m12.75 0a6.16 6.16 0 0 1-6.38-6.19 6.4 6.4 0 0 1 12.79 0 6.22 6.22 0 0 1-6.41 6.22m3.64-6.22a3.65 3.65 0 0 0-3.64-3.78 3.6 3.6 0 0 0-3.62 3.75 3.66 3.66 0 0 0 3.65 3.78 3.6 3.6 0 0 0 3.61-3.75Zm13.56 6-5.83-7.65v7.65h-2.52V87.07h2.44l5.64 7.41v-7.41h2.62v12Zm9.41.17a7.6 7.6 0 0 1-5.11-1.93l1.56-1.87a5.51 5.51 0 0 0 3.6 1.46c1.08 0 1.73-.43 1.73-1.13 0-.67-.41-1-2.42-1.53-2.42-.62-4-1.29-4-3.68 0-2.19 1.75-3.63 4.21-3.63a7 7 0 0 1 4.47 1.53l-1.37 2a5.66 5.66 0 0 0-3.13-1.18c-1 0-1.55.46-1.55 1.05 0 .79.52 1.05 2.6 1.58 2.44.64 3.82 1.52 3.82 3.62 0 2.39-1.83 3.73-4.42 3.73m12.05-9.77v9.6h-2.65v-9.6h-3.66v-2.5h10v2.44Zm13 9.6-2.58-3.85h-2.08v3.85h-2.65v-12.1h5.51c2.84 0 4.54 1.5 4.54 4a3.74 3.74 0 0 1-2.58 3.73l2.94 4.3Zm0-7.93c0-1.13-.79-1.72-2.08-1.72h-2.63v3.46h2.68c1.29 0 2-.69 2-1.71Zm10.2 8.09c-3.23 0-5.21-1.81-5.21-5.35v-6.91h2.65v6.81c0 2 1 3 2.6 3s2.59-1 2.59-2.89v-6.92h2.65v6.79c0 3.65-2.05 5.44-5.28 5.44m13.61 0a6.07 6.07 0 0 1-6.18-6.19 6.12 6.12 0 0 1 6.28-6.23 6.23 6.23 0 0 1 4.75 1.86l-1.69 1.94a4.44 4.44 0 0 0-3.08-1.35 3.56 3.56 0 0 0-3.49 3.75 3.58 3.58 0 0 0 3.49 3.78 4.36 4.36 0 0 0 3.17-1.41l1.68 1.71a6.14 6.14 0 0 1-4.93 2.14m12.49-9.8v9.6h-2.65v-9.6h-3.67v-2.43h10v2.44Zm5.79-2.44h2.65v12H208Zm11.5 12.24a6.16 6.16 0 0 1-6.38-6.19 6.4 6.4 0 0 1 12.79 0 6.22 6.22 0 0 1-6.41 6.22m3.64-6.22a3.65 3.65 0 0 0-3.64-3.78 3.6 3.6 0 0 0-3.62 3.75 3.66 3.66 0 0 0 3.65 3.78 3.6 3.6 0 0 0 3.61-3.75Zm13.52 6-5.83-7.65v7.65h-2.61V87.07h2.44l5.64 7.41v-7.41h2.61v12Zm6.14-7.82h-1v-3.38h-1.26v-.84h3.49v.85h-1.26Zm4.1-1h-.08l-1.17-1.86v2.86h-.91v-4.22h1l1.11 1.79 1.12-1.79h1v4.23h-.91v-2.86ZM16.37.07q5.57 0 8.52 2.09t3 6.57a6.94 6.94 0 0 1-1 3.82 7.28 7.28 0 0 1-2.92 2.57 9.38 9.38 0 0 1 4.75 2.66 7.32 7.32 0 0 1 1.69 5.07 7.55 7.55 0 0 1-3.08 6.39q-3.07 2.33-8.78 2.32H1.05V.07Zm.47 11.23a2.22 2.22 0 0 0 .6-1.6 2.3 2.3 0 0 0-.6-1.59 2.49 2.49 0 0 0-2-.67h-3.7v4.49h3.7a2.6 2.6 0 0 0 2-.63m2.08 12.13a2.48 2.48 0 0 0 0-3.35 2.58 2.58 0 0 0-2-.7h-5.74v4.69h5.74a2.65 2.65 0 0 0 2-.67M45.02 21.16a4.79 4.79 0 0 0 3.73 1.46 4.89 4.89 0 0 0 3.82-1.46 6.12 6.12 0 0 0 1.32-4.24V.07h10.22v17.6a14.94 14.94 0 0 1-1 5.51 13.23 13.23 0 0 1-3 4.56 14.39 14.39 0 0 1-4.81 3.12 17.22 17.22 0 0 1-6.51 1.16 18.12 18.12 0 0 1-6.46-1.07 13.39 13.39 0 0 1-4.79-3 12.76 12.76 0 0 1-3-4.54 15.7 15.7 0 0 1-1-5.76V.07h10.18v16.9a6.12 6.12 0 0 0 1.32 4.24M68.35.25h10.19v31.48H68.35zM83.43.25h10.19v22.69h14.44v8.8H83.43V.25zM122.28 31.74H112.1V9.1h-8.34V.25h26.86V9.1h-8.34v22.64zM1 43.57h26.02v8.8h-16.3v2.78h12.92v8.1H10.72v3.01h16.3v8.8H1V43.57zM41.39 75.06H31.2V43.57H40l12.5 15.28V43.57h10.19v31.49h-8.8l-12.5-15.28v15.28zM75.76 43.57l6.36 18.21 6.35-18.21h11.21L87.53 75.06H76.71L64.56 43.57h11.2zM101.52 43.57h10.19v31.48h-10.19zM148.44 52.9a15.43 15.43 0 0 1 8.52-8.56 16.42 16.42 0 0 1 6.41-1.23 16.81 16.81 0 0 1 6.46 1.23 15.34 15.34 0 0 1 8.56 8.56 16.81 16.81 0 0 1 1.23 6.46 16.47 16.47 0 0 1-1.23 6.42 15.46 15.46 0 0 1-8.56 8.51 16.81 16.81 0 0 1-6.46 1.23 16.42 16.42 0 0 1-6.41-1.23 15.55 15.55 0 0 1-8.52-8.51 16.47 16.47 0 0 1-1.23-6.42 16.81 16.81 0 0 1 1.23-6.46m9.14 9a6.63 6.63 0 0 0 1.3 2.09 5.93 5.93 0 0 0 2 1.41 6 6 0 0 0 2.52.51 6.28 6.28 0 0 0 2.55-.51 6 6 0 0 0 2-1.41 6.37 6.37 0 0 0 1.27-2.09 7.34 7.34 0 0 0 .44-2.57 7.73 7.73 0 0 0-.44-2.61 6.16 6.16 0 0 0-1.27-2.13 5.89 5.89 0 0 0-2-1.42 6.48 6.48 0 0 0-2.55-.5 6.19 6.19 0 0 0-2.52.5 5.81 5.81 0 0 0-2 1.42 6.39 6.39 0 0 0-1.3 2.13 7.28 7.28 0 0 0-.46 2.61 6.91 6.91 0 0 0 .46 2.57M193.15 75.06h-10.19V43.57h8.79l12.51 15.28V43.57h10.18v31.49h-8.79l-12.5-15.28v15.28zM241.53 59.55a9 9 0 0 0-2.5-2 19.53 19.53 0 0 0-3.77-1.58l-5.23-1.57a3.86 3.86 0 0 1-1.39-.67 1.12 1.12 0 0 1-.37-.86q0-1.62 2.4-1.62a16.31 16.31 0 0 1 4.68.74 25.05 25.05 0 0 1 3.4 1.29l3.57-7.77a18.65 18.65 0 0 0-1.92-.77c-.87-.29-1.8-.55-2.8-.78s-2.06-.43-3.15-.58a24.44 24.44 0 0 0-3.31-.23 18.46 18.46 0 0 0-5.63.78 12.2 12.2 0 0 0-4.07 2.16 9 9 0 0 0-2.5 3.22 9.36 9.36 0 0 0-.86 4 7.65 7.65 0 0 0 2 5.65A14.35 14.35 0 0 0 226 62.2l5 1.52a4.75 4.75 0 0 1 1.48.7 1.25 1.25 0 0 1 .56 1 1.65 1.65 0 0 1-.79 1.53 4.53 4.53 0 0 1-2.22.46 15 15 0 0 1-5.31-1 20.52 20.52 0 0 1-4.46-2.29l-2.36 8.61a16.55 16.55 0 0 0 2.08.9 28.36 28.36 0 0 0 2.89.91 32.6 32.6 0 0 0 3.38.67 25.38 25.38 0 0 0 3.59.25 18.63 18.63 0 0 0 5.65-.79 12.29 12.29 0 0 0 4.24-2.22 9.7 9.7 0 0 0 3.58-7.68 9.35 9.35 0 0 0-.41-2.85 7 7 0 0 0-1.37-2.43M146.94 75.07l-8.31-12.25a9.82 9.82 0 0 0 4.14-2.94 8.68 8.68 0 0 0 1.94-5.69 10.68 10.68 0 0 0-.92-4.5 10 10 0 0 0-2.48-3.33 11.08 11.08 0 0 0-3.59-2.06 12.71 12.71 0 0 0-4.26-.72h-17.08v31.49h10.18V64.55h2.39l7.16 10.52Zm-20.38-22.7h5.19a2.22 2.22 0 0 1 1.92.79 2.58 2.58 0 0 1 0 3.26 2.27 2.27 0 0 1-1.92.77h-5.19Z" class="cls-2"/></svg>